<svg width="64" height="64" viewBox="0 0 64 64" fill="none" xmlns="http://www.w3.org/2000/svg">
  <!-- Fondo circular claro -->
  <circle cx="32" cy="32" r="30" fill="#FFF5EE" stroke="#FF69B4" stroke-width="2"/>

  <!-- Tortuga kawaii -->
  <!-- Caparazón -->
  <ellipse cx="32" cy="35" rx="18" ry="15" fill="#90EE90" stroke="#228B22" stroke-width="1.5"/>
  <circle cx="25" cy="32" r="4" fill="#98FB98" stroke="#228B22" stroke-width="1"/>
  <circle cx="39" cy="32" r="4" fill="#98FB98" stroke="#228B22" stroke-width="1"/>
  <circle cx="32" cy="28" r="3" fill="#98FB98" stroke="#228B22" stroke-width="1"/>
  <circle cx="32" cy="38" r="3" fill="#98FB98" stroke="#228B22" stroke-width="1"/>
  <circle cx="25" cy="38" r="2" fill="#98FB98" stroke="#228B22" stroke-width="1"/>
  <circle cx="39" cy="38" r="2" fill="#98FB98" stroke="#228B22" stroke-width="1"/>

  <!-- Cabeza -->
  <circle cx="14" cy="30" r="8" fill="#98FB98" stroke="#228B22" stroke-width="1.5"/>
  <circle cx="14" cy="28" r="6" fill="#B0E0E6"/>

  <!-- Orejas -->
  <circle cx="12" cy="22" r="2" fill="#98FB98" stroke="#228B22" stroke-width="1.5"/>
  <circle cx="16" cy="22" r="2" fill="#98FB98" stroke="#228B22" stroke-width="1.5"/>

  <!-- Ojos grandes kawaii -->
  <ellipse cx="11" cy="27" rx="2" ry="3" fill="#FFF" stroke="#228B22" stroke-width="1"/>
  <ellipse cx="17" cy="27" rx="2" ry="3" fill="#FFF" stroke="#228B22" stroke-width="1"/>
  <circle cx="11" cy="28" r="1" fill="#000"/>
  <circle cx="17" cy="28" r="1" fill="#000"/>
  <circle cx="11.5" cy="27.5" r="0.5" fill="#FFF"/>
  <circle cx="16.5" cy="27.5" r="0.5" fill="#FFF"/>

  <!-- Nariz -->
  <ellipse cx="14" cy="31" rx="1.5" ry="1" fill="#000"/>

  <!-- Boca feliz -->
  <path d="M 11 33 Q 14 35, 17 33" stroke="#000" stroke-width="1" fill="none"/>

  <!-- Patas -->
  <ellipse cx="22" cy="44" rx="4" ry="6" fill="#98FB98" stroke="#228B22" stroke-width="1.5"/>
  <ellipse cx="32" cy="46" rx="4" ry="6" fill="#98FB98" stroke="#228B22" stroke-width="1.5"/>
  <ellipse cx="42" cy="44" rx="4" ry="6" fill="#98FB98" stroke="#228B22" stroke-width="1.5"/>
  <ellipse cx="20" cy="40" rx="3" ry="4" fill="#98FB98" stroke="#228B22" stroke-width="1.5"/>
  <ellipse cx="44" cy="40" rx="3" ry="4" fill="#98FB98" stroke="#228B22" stroke-width="1.5"/>

  <!-- Cola -->
  <path d="M 48 35 Q 52 32, 50 28" stroke="#90EE90" stroke-width="3" fill="none" stroke-linecap="round"/>

  <!-- Corazón en el caparazón -->
  <path d="M 32 35 C 30 33, 27 33, 27 36 C 27 37, 30 38, 32 39 C 34 38, 37 37, 37 36 C 37 33, 34 33, 32 35 Z"
        fill="#FF69B4" stroke="#FF1493" stroke-width="1"/>

  <!-- Estrella kawaii -->
  <path d="M 45 20 L 45.5 21 L 46.5 21 L 45.5 22 L 46 23 L 45 22 L 44 23 L 44.5 22 L 43.5 21 L 44.5 21 Z"
        fill="#FFD700" stroke="#FFA500" stroke-width="1"/>

  <!-- Mejillas rosadas -->
  <ellipse cx="8" cy="29" rx="2" ry="1.5" fill="#FFB6C1" opacity="0.6"/>
  <ellipse cx="20" cy="29" rx="2" ry="1.5" fill="#FFB6C1" opacity="0.6"/>
</svg>