<svg width="64" height="64" viewBox="0 0 64 64" fill="none" xmlns="http://www.w3.org/2000/svg">
  <!-- Fondo circular consistente -->
  <circle cx="32" cy="32" r="30" fill="#F0F0F0" stroke="#333" stroke-width="2"/>

  <!-- León -->
  <circle cx="32" cy="35" r="15" fill="#DAA520"/>
  <circle cx="32" cy="30" r="12" fill="#FFD700"/>

  <!-- Melena -->
  <path d="M 17 25 Q 10 20, 12 15 Q 18 18, 20 22 M 47 25 Q 54 20, 52 15 Q 46 18, 44 22"
        fill="#B8860B" stroke="#333" stroke-width="1"/>
  <path d="M 15 35 Q 8 30, 10 25 Q 16 28, 18 32 M 49 35 Q 56 30, 54 25 Q 48 28, 46 32"
        fill="#B8860B" stroke="#333" stroke-width="1"/>

  <!-- Cara -->
  <circle cx="26" cy="32" r="2" fill="#000"/>
  <circle cx="38" cy="32" r="2" fill="#000"/>
  <ellipse cx="32" cy="38" rx="3" ry="2" fill="#000"/>
  <path d="M 30 40 Q 32 42, 34 40" stroke="#000" stroke-width="1" fill="none"/>
</svg>