<svg width="64" height="64" viewBox="0 0 64 64" fill="none" xmlns="http://www.w3.org/2000/svg">
  <!-- Fondo circular consistente -->
  <circle cx="32" cy="32" r="30" fill="#F0F0F0" stroke="#333" stroke-width="2"/>

  <!-- Ave -->
  <ellipse cx="32" cy="35" rx="18" ry="15" fill="#4A90E2"/>
  <ellipse cx="32" cy="30" rx="12" ry="10" fill="#6BA3E5"/>

  <!-- Alas -->
  <ellipse cx="20" cy="32" rx="8" ry="15" fill="#4A90E2" stroke="#333" stroke-width="1"/>
  <ellipse cx="44" cy="32" rx="8" ry="15" fill="#4A90E2" stroke="#333" stroke-width="1"/>

  <!-- Cresta -->
  <path d="M 28 22 L 26 18 L 28 16 L 30 18 L 32 16 L 34 18 L 36 16 L 38 18 L 36 22"
        fill="#FFD700" stroke="#333" stroke-width="1"/>

  <!-- Pico -->
  <path d="M 25 35 L 20 37 L 25 39 Z" fill="#FFA500"/>
  <path d="M 39 35 L 44 37 L 39 39 Z" fill="#FFA500"/>

  <!-- Ojos -->
  <circle cx="26" cy="28" r="3" fill="#FFF"/>
  <circle cx="38" cy="28" r="3" fill="#FFF"/>
  <circle cx="26" cy="29" r="2" fill="#000"/>
  <circle cx="38" cy="29" r="2" fill="#000"/>

  <!-- Cola -->
  <ellipse cx="50" cy="35" rx="6" ry="8" fill="#4A90E2" stroke="#333" stroke-width="1"/>
</svg>