<svg width="64" height="64" viewBox="0 0 64 64" fill="none" xmlns="http://www.w3.org/2000/svg">
  <!-- Fondo circular consistente -->
  <circle cx="32" cy="32" r="30" fill="#F0F0F0" stroke="#333" stroke-width="2"/>

  <!-- Suri (Alpaca) -->
  <ellipse cx="32" cy="40" rx="16" ry="12" fill="#F5F5DC"/>
  <ellipse cx="32" cy="30" rx="10" ry="8" fill="#FFF"/>

  <!-- Lana (pelo) -->
  <circle cx="25" cy="25" r="4" fill="#FFF" stroke="#333" stroke-width="1"/>
  <circle cx="39" cy="25" r="4" fill="#FFF" stroke="#333" stroke-width="1"/>
  <circle cx="32" cy="20" r="3" fill="#FFF" stroke="#333" stroke-width="1"/>
  <circle cx="28" cy="35" r="3" fill="#FFF" stroke="#333" stroke-width="1"/>
  <circle cx="36" cy="35" r="3" fill="#FFF" stroke="#333" stroke-width="1"/>
  <circle cx="25" cy="40" r="3" fill="#FFF" stroke="#333" stroke-width="1"/>
  <circle cx="39" cy="40" r="3" fill="#FFF" stroke="#333" stroke-width="1"/>

  <!-- Cuello largo -->
  <ellipse cx="32" cy="20" rx="8" ry="12" fill="#F5F5DC"/>

  <!-- Orejas -->
  <ellipse cx="26" cy="10" rx="3" ry="8" fill="#F5F5DC" stroke="#333" stroke-width="1"/>
  <ellipse cx="38" cy="10" rx="3" ry="8" fill="#F5F5DC" stroke="#333" stroke-width="1"/>

  <!-- Ojos -->
  <circle cx="28" cy="15" r="2" fill="#000"/>
  <circle cx="36" cy="15" r="2" fill="#000"/>
  <circle cx="27" cy="14" r="1" fill="#FFF"/>
  <circle cx="35" cy="14" r="1" fill="#FFF"/>

  <!-- Nariz -->
  <ellipse cx="32" cy="20" rx="2" ry="1" fill="#000"/>

  <!-- Patas -->
  <ellipse cx="25" cy="48" rx="3" ry="6" fill="#F5F5DC" stroke="#333" stroke-width="1"/>
  <ellipse cx="32" cy="48" rx="3" ry="6" fill="#F5F5DC" stroke="#333" stroke-width="1"/>
  <ellipse cx="39" cy="48" rx="3" ry="6" fill="#F5F5DC" stroke="#333" stroke-width="1"/>
</svg>