<svg width="64" height="64" viewBox="0 0 64 64" fill="none" xmlns="http://www.w3.org/2000/svg">
  <!-- Fondo circular claro -->
  <circle cx="32" cy="32" r="30" fill="#E6FFE6" stroke="#9370DB" stroke-width="2"/>

  <!-- Pájaro kawaii -->
  <!-- Cuerpo -->
  <ellipse cx="32" cy="32" rx="16" ry="18" fill="#DDA0DD" stroke="#9370DB" stroke-width="1.5"/>

  <!-- Cabeza -->
  <ellipse cx="32" cy="18" rx="11" ry="10" fill="#DDA0DD" stroke="#9370DB" stroke-width="1.5"/>

  <!-- Cresta -->
  <path d="M 28 10 L 27 6 L 29 8 L 30 6 L 31 8 L 32 6 L 33 8 L 34 6 L 35 8 L 36 6 L 37 10"
        fill="#FFB6C1" stroke="#FF1493" stroke-width="1.5"/>

  <!-- Alas -->
  <ellipse cx="20" cy="30" rx="6" ry="12" fill="#DDA0DD" stroke="#9370DB" stroke-width="1.5"/>
  <ellipse cx="44" cy="30" rx="6" ry="12" fill="#DDA0DD" stroke="#9370DB" stroke-width="1.5"/>
  <ellipse cx="20" cy="30" rx="3" ry="8" fill="#E6B3E6"/>
  <ellipse cx="44" cy="30" rx="3" ry="8" fill="#E6B3E6"/>

  <!-- Ojos grandes kawaii -->
  <ellipse cx="27" cy="16" rx="3.5" ry="4.5" fill="#FFF" stroke="#9370DB" stroke-width="1.5"/>
  <ellipse cx="37" cy="16" rx="3.5" ry="4.5" fill="#FFF" stroke="#9370DB" stroke-width="1.5"/>
  <circle cx="28" cy="17" r="1.8" fill="#000"/>
  <circle cx="36" cy="17" r="1.8" fill="#000"/>
  <circle cx="29" cy="16" r="0.9" fill="#FFF"/>
  <circle cx="35" cy="16" r="0.9" fill="#FFF"/>

  <!-- Pico -->
  <path d="M 32 20 L 28 22 L 32 24 Z" fill="#FFA500" stroke="#FF8C00" stroke-width="1"/>

  <!-- Cola -->
  <ellipse cx="50" cy="35" rx="8" ry="6" fill="#DDA0DD" stroke="#9370DB" stroke-width="1.5"/>
  <path d="M 48 32 L 52 35 L 48 38" stroke="#9370DB" stroke-width="1.5" fill="none"/>

  <!-- Patas -->
  <line x1="28" y1="48" x2="28" y2="54" stroke="#FFA500" stroke-width="2" stroke-linecap="round"/>
  <line x1="36" y1="48" x2="36" y2="54" stroke="#FFA500" stroke-width="2" stroke-linecap="round"/>
  <path d="M 26 54 L 30 54" stroke="#FFA500" stroke-width="2" stroke-linecap="round"/>
  <path d="M 34 54 L 38 54" stroke="#FFA500" stroke-width="2" stroke-linecap="round"/>

  <!-- Mejillas rosadas -->
  <ellipse cx="22" cy="20" rx="3" ry="2" fill="#FFB6C1" opacity="0.6"/>
  <ellipse cx="42" cy="20" rx="3" ry="2" fill="#FFB6C1" opacity="0.6"/>
</svg>