<svg width="64" height="64" viewBox="0 0 64 64" fill="none" xmlns="http://www.w3.org/2000/svg">
  <!-- Fondo circular consistente -->
  <circle cx="32" cy="32" r="30" fill="#F0F0F0" stroke="#333" stroke-width="2"/>

  <!-- Hipopótamo -->
  <ellipse cx="32" cy="35" rx="22" ry="15" fill="#708090"/>
  <ellipse cx="32" cy="30" rx="15" ry="10" fill="#778899"/>

  <!-- Orejas pequeñas -->
  <circle cx="20" cy="20" r="4" fill="#708090" stroke="#333" stroke-width="1"/>
  <circle cx="44" cy="20" r="4" fill="#708090" stroke="#333" stroke-width="1"/>
  <circle cx="20" cy="20" r="2" fill="#FFB6C1"/>
  <circle cx="44" cy="20" r="2" fill="#FFB6C1"/>

  <!-- Narices grandes -->
  <ellipse cx="28" cy="35" rx="3" ry="2" fill="#000"/>
  <ellipse cx="36" cy="35" rx="3" ry="2" fill="#000"/>
  <circle cx="27" cy="34" r="1" fill="#FFB6C1"/>
  <circle cx="29" cy="34" r="1" fill="#FFB6C1"/>
  <circle cx="35" cy="34" r="1" fill="#FFB6C1"/>
  <circle cx="37" cy="34" r="1" fill="#FFB6C1"/>

  <!-- Ojos -->
  <circle cx="26" cy="28" r="2" fill="#000"/>
  <circle cx="38" cy="28" r="2" fill="#000"/>
  <circle cx="25" cy="27" r="1" fill="#FFF"/>
  <circle cx="37" cy="27" r="1" fill="#FFF"/>

  <!-- Patas -->
  <ellipse cx="22" cy="48" rx="5" ry="8" fill="#708090" stroke="#333" stroke-width="1"/>
  <ellipse cx="32" cy="48" rx="5" ry="8" fill="#708090" stroke="#333" stroke-width="1"/>
  <ellipse cx="42" cy="48" rx="5" ry="8" fill="#708090" stroke="#333" stroke-width="1"/>

  <!-- Boca -->
  <path d="M 25 38 Q 32 42, 39 38" stroke="#000" stroke-width="1" fill="none"/>
</svg>