<svg width="64" height="64" viewBox="0 0 64 64" fill="none" xmlns="http://www.w3.org/2000/svg">
  <!-- Fondo circular claro -->
  <circle cx="32" cy="32" r="30" fill="#FFF0F5" stroke="#FF69B4" stroke-width="2"/>

  <!-- Unicornio kawaii -->
  <!-- Cuerpo -->
  <ellipse cx="32" cy="38" rx="14" ry="12" fill="#E6E6FA" stroke="#9370DB" stroke-width="1.5"/>
  <ellipse cx="32" cy="35" rx="12" ry="10" fill="#F0F8FF" stroke="#9370DB" stroke-width="1.5"/>

  <!-- Cabeza -->
  <ellipse cx="32" cy="20" rx="10" ry="8" fill="#E6E6FA" stroke="#9370DB" stroke-width="1.5"/>

  <!-- Cuerno mágico -->
  <path d="M 32 12 L 30 2 L 31 8 L 29 -2 L 31 6 L 32 -4 L 33 6 L 35 -2 L 33 8 L 34 2 L 32 12 Z"
        fill="url(#rainbow)" stroke="#9370DB" stroke-width="1.5"/>

  <!-- Definición del gradiente arcoíris -->
  <defs>
    <linearGradient id="rainbow" x1="0%" y1="0%" x2="0%" y2="100%">
      <stop offset="0%" style="stop-color:#FF0000" />
      <stop offset="20%" style="stop-color:#FF7F00" />
      <stop offset="40%" style="stop-color:#FFFF00" />
      <stop offset="60%" style="stop-color:#00FF00" />
      <stop offset="80%" style="stop-color:#0000FF" />
      <stop offset="100%" style="stop-color:#8B00FF" />
    </linearGradient>
  </defs>

  <!-- Orejas -->
  <ellipse cx="24" cy="15" rx="3" ry="5" fill="#E6E6FA" stroke="#9370DB" stroke-width="1.5"/>
  <ellipse cx="40" cy="15" rx="3" ry="5" fill="#E6E6FA" stroke="#9370DB" stroke-width="1.5"/>
  <ellipse cx="24" cy="15" rx="1.5" ry="3" fill="#FFB6C1"/>
  <ellipse cx="40" cy="15" rx="1.5" ry="3" fill="#FFB6C1"/>

  <!-- Crinera -->
  <path d="M 22 18 Q 20 10, 18 12 Q 22 8, 26 10 Q 24 6, 28 8 Q 26 4, 30 6 Q 28 2, 32 4 Q 36 2, 34 6 Q 32 4, 36 8 Q 38 6, 40 10 Q 42 8, 44 12 Q 46 10, 42 18"
        fill="url(#rainbow)" stroke="#9370DB" stroke-width="1.5" opacity="0.8"/>

  <!-- Ojos grandes kawaii con brillo -->
  <ellipse cx="27" cy="18" rx="3" ry="4" fill="#FFF" stroke="#9370DB" stroke-width="1.5"/>
  <ellipse cx="37" cy="18" rx="3" ry="4" fill="#FFF" stroke="#9370DB" stroke-width="1.5"/>
  <circle cx="27" cy="19" r="2" fill="#000"/>
  <circle cx="37" cy="19" r="2" fill="#000"/>
  <circle cx="28" cy="18" r="1" fill="#FFF"/>
  <circle cx="36" cy="18" r="1" fill="#FFF"/>
  <circle cx="28" cy="17" r="0.5" fill="#FFD700"/>
  <circle cx="36" cy="17" r="0.5" fill="#FFD700"/>

  <!-- Nariz -->
  <ellipse cx="32" cy="23" rx="1.5" ry="1" fill="#FFB6C1" stroke="#FF1493" stroke-width="1"/>

  <!-- Boca sonriente -->
  <path d="M 26 25 Q 32 29, 38 25" stroke="#000" stroke-width="1.5" fill="none"/>

  <!-- Patas -->
  <ellipse cx="24" cy="48" rx="3" ry="6" fill="#E6E6FA" stroke="#9370DB" stroke-width="1.5"/>
  <ellipse cx="40" cy="48" rx="3" ry="6" fill="#E6E6FA" stroke="#9370DB" stroke-width="1.5"/>

  <!-- Pezuñas -->
  <ellipse cx="24" cy="52" rx="2" ry="1.5" fill="#FFB6C1" stroke="#FF1493" stroke-width="1.5"/>
  <ellipse cx="40" cy="52" rx="2" ry="1.5" fill="#FFB6C1" stroke="#FF1493" stroke-width="1.5"/>

  <!-- Cola arcoíris -->
  <path d="M 46 35 Q 55 30, 58 20 Q 56 25, 52 30 Q 48 35, 44 40"
        fill="url(#rainbow)" stroke="#9370DB" stroke-width="1.5"/>
  <path d="M 44 38 Q 50 34, 54 28" stroke="#FFD700" stroke-width="2" fill="none" opacity="0.7"/>

  <!-- Estrellas mágicas flotando -->
  <path d="M 15 25 L 15.5 26 L 16.5 26 L 15.5 27 L 16 28 L 15 27 L 14 28 L 14.5 27 L 13.5 26 L 14.5 26 Z"
        fill="#FFD700" stroke="#FFA500" stroke-width="1" opacity="0.8"/>
  <path d="M 50 15 L 50.3 15.8 L 51.2 15.8 L 50.3 16.5 L 50.7 17.3 L 50 16.5 L 49.3 17.3 L 49.7 16.5 L 48.8 15.8 L 49.7 15.8 Z"
        fill="#FFD700" stroke="#FFA500" stroke-width="1" opacity="0.8"/>
  <path d="M 10 40 L 10.2 40.6 L 10.8 40.6 L 10.2 41.1 L 10.5 41.7 L 10 41.1 L 9.5 41.7 L 9.8 41.1 L 9.2 40.6 L 9.8 40.6 Z"
        fill="#FFD700" stroke="#FFA500" stroke-width="1" opacity="0.6"/>

  <!-- Corazones mágicos -->
  <path d="M 20 35 C 19 34, 17 34, 17 36 C 17 37, 19 38, 20 39 C 21 38, 23 37, 23 36 C 23 34, 21 34, 20 35 Z"
        fill="#FF69B4" stroke="#FF1493" stroke-width="1" opacity="0.7"/>
  <path d="M 44 25 C 43 24, 41 24, 41 26 C 41 27, 43 28, 44 29 C 45 28, 47 27, 47 26 C 47 24, 45 24, 44 25 Z"
        fill="#FF69B4" stroke="#FF1493" stroke-width="1" opacity="0.7"/>

  <!-- Mejillas rosadas -->
  <ellipse cx="20" cy="21" rx="2.5" ry="2" fill="#FFB6C1" opacity="0.6"/>
  <ellipse cx="44" cy="21" rx="2.5" ry="2" fill="#FFB6C1" opacity="0.6"/>

  <!-- Chispas mágicas -->
  <circle cx="25" cy="10" r="0.5" fill="#FFD700"/>
  <circle cx="35" cy="8" r="0.5" fill="#FFD700"/>
  <circle cx="30" cy="6" r="0.5" fill="#FFD700"/>
  <circle cx="40" cy="12" r="0.5" fill="#FFD700"/>
</svg>