<svg width="64" height="64" viewBox="0 0 64 64" fill="none" xmlns="http://www.w3.org/2000/svg">
  <!-- Fondo circular consistente -->
  <circle cx="32" cy="32" r="30" fill="#F0F0F0" stroke="#333" stroke-width="2"/>

  <!-- Jirafa -->
  <ellipse cx="32" cy="45" rx="14" ry="10" fill="#FFD700"/>
  <ellipse cx="32" cy="35" rx="8" ry="6" fill="#FFA500"/>

  <!-- Cuello largo -->
  <ellipse cx="32" cy="15" rx="6" ry="20" fill="#FFD700"/>
  <ellipse cx="32" cy="15" rx="4" ry="18" fill="#FFA500"/>

  <!-- Manchas -->
  <circle cx="28" cy="15" r="2" fill="#8B4513"/>
  <circle cx="36" cy="15" r="2" fill="#8B4513"/>
  <circle cx="30" cy="25" r="2" fill="#8B4513"/>
  <circle cx="34" cy="25" r="2" fill="#8B4513"/>
  <circle cx="28" cy="35" r="2" fill="#8B4513"/>
  <circle cx="36" cy="35" r="2" fill="#8B4513"/>
  <circle cx="25" cy="45" r="2" fill="#8B4513"/>
  <circle cx="39" cy="45" r="2" fill="#8B4513"/>

  <!-- Orejas -->
  <ellipse cx="28" cy="5" rx="3" ry="5" fill="#FFD700" stroke="#333" stroke-width="1"/>
  <ellipse cx="36" cy="5" rx="3" ry="5" fill="#FFD700" stroke="#333" stroke-width="1"/>

  <!-- Ojos -->
  <circle cx="29" cy="8" r="2" fill="#000"/>
  <circle cx="35" cy="8" r="2" fill="#000"/>
  <circle cx="28" cy="7" r="1" fill="#FFF"/>
  <circle cx="34" cy="7" r="1" fill="#FFF"/>

  <!-- Cuernos -->
  <path d="M 26 2 L 25 -2" stroke="#8B4513" stroke-width="2"/>
  <path d="M 38 2 L 39 -2" stroke="#8B4513" stroke-width="2"/>
  <circle cx="25" cy="-2" r="1" fill="#8B4513"/>
  <circle cx="39" cy="-2" r="1" fill="#8B4513"/>

  <!-- Patas -->
  <ellipse cx="25" cy="52" rx="3" ry="6" fill="#FFD700" stroke="#333" stroke-width="1"/>
  <ellipse cx="32" cy="52" rx="3" ry="6" fill="#FFD700" stroke="#333" stroke-width="1"/>
  <ellipse cx="39" cy="52" rx="3" ry="6" fill="#FFD700" stroke="#333" stroke-width="1"/>
</svg>