<svg width="64" height="64" viewBox="0 0 64 64" fill="none" xmlns="http://www.w3.org/2000/svg">
  <!-- Fondo circular claro -->
  <circle cx="32" cy="32" r="30" fill="#F0FFF0" stroke="#90EE90" stroke-width="2"/>

  <!-- Conejo kawaii -->
  <!-- Cuerpo -->
  <ellipse cx="32" cy="40" rx="15" ry="12" fill="#FFF8DC" stroke="#90EE90" stroke-width="1.5"/>

  <!-- Cabeza -->
  <ellipse cx="32" cy="25" rx="12" ry="10" fill="#FFF8DC" stroke="#90EE90" stroke-width="1.5"/>

  <!-- Orejas largas -->
  <ellipse cx="25" cy="8" rx="4" ry="15" fill="#FFF8DC" stroke="#90EE90" stroke-width="1.5"/>
  <ellipse cx="39" cy="8" rx="4" ry="15" fill="#FFF8DC" stroke="#90EE90" stroke-width="1.5"/>
  <ellipse cx="25" cy="8" rx="2" ry="10" fill="#FFB6C1"/>
  <ellipse cx="39" cy="8" rx="2" ry="10" fill="#FFB6C1"/>

  <!-- Ojos grandes kawaii -->
  <ellipse cx="27" cy="23" rx="3" ry="4" fill="#FFF" stroke="#90EE90" stroke-width="1.5"/>
  <ellipse cx="37" cy="23" rx="3" ry="4" fill="#FFF" stroke="#90EE90" stroke-width="1.5"/>
  <circle cx="28" cy="24" r="1.5" fill="#000"/>
  <circle cx="36" cy="24" r="1.5" fill="#000"/>
  <circle cx="29" cy="23" r="0.8" fill="#FFF"/>
  <circle cx="35" cy="23" r="0.8" fill="#FFF"/>

  <!-- Nariz -->
  <ellipse cx="32" cy="28" rx="2" ry="1.5" fill="#FFB6C1"/>

  <!-- Boca -->
  <path d="M 28 30 Q 32 32, 36 30" stroke="#000" stroke-width="1.5" fill="none"/>

  <!-- Bigotes -->
  <path d="M 20 25 L 12 23" stroke="#90EE90" stroke-width="1"/>
  <path d="M 20 27 L 12 27" stroke="#90EE90" stroke-width="1"/>
  <path d="M 44 25 L 52 23" stroke="#90EE90" stroke-width="1"/>
  <path d="M 44 27 L 52 27" stroke="#90EE90" stroke-width="1"/>

  <!-- Cola de algodón -->
  <circle cx="48" cy="42" r="6" fill="#FFF8DC" stroke="#90EE90" stroke-width="1.5"/>
  <circle cx="48" cy="42" r="4" fill="#FFF" stroke="#90EE90" stroke-width="1"/>

  <!-- Patas -->
  <ellipse cx="26" cy="48" rx="4" ry="3" fill="#FFF8DC" stroke="#90EE90" stroke-width="1.5"/>
  <ellipse cx="38" cy="48" rx="4" ry="3" fill="#FFF8DC" stroke="#90EE90" stroke-width="1.5"/>

  <!-- Moño -->
  <circle cx="32" cy="10" r="3" fill="#FFB6C1" stroke="#FF1493" stroke-width="1.5"/>
</svg>