<svg width="64" height="64" viewBox="0 0 64 64" fill="none" xmlns="http://www.w3.org/2000/svg">
  <!-- Fondo circular claro -->
  <circle cx="32" cy="32" r="30" fill="#E0FFFF" stroke="#40E0D0" stroke-width="2"/>

  <!-- Pingüino kawaii -->
  <!-- Cuerpo -->
  <ellipse cx="32" cy="38" rx="14" ry="16" fill="#000" stroke="#000" stroke-width="1.5"/>
  <ellipse cx="32" cy="35" rx="12" ry="14" fill="#FFF" stroke="#000" stroke-width="1.5"/>

  <!-- Cabeza -->
  <ellipse cx="32" cy="18" rx="10" ry="8" fill="#000" stroke="#000" stroke-width="1.5"/>
  <ellipse cx="32" cy="16" rx="8" ry="6" fill="#FFF" stroke="#000" stroke-width="1.5"/>

  <!-- Ojos grandes kawaii -->
  <ellipse cx="28" cy="16" rx="2.5" ry="3" fill="#FFF" stroke="#000" stroke-width="1"/>
  <ellipse cx="36" cy="16" rx="2.5" ry="3" fill="#FFF" stroke="#000" stroke-width="1"/>
  <circle cx="28" cy="17" r="1.5" fill="#000"/>
  <circle cx="36" cy="17" r="1.5" fill="#000"/>
  <circle cx="28.5" cy="16.5" r="0.8" fill="#FFF"/>
  <circle cx="35.5" cy="16.5" r="0.8" fill="#FFF"/>

  <!-- Pico -->
  <ellipse cx="32" cy="20" rx="2" ry="1.5" fill="#FFA500" stroke="#FF8C00" stroke-width="1.5"/>

  <!-- Alas -->
  <ellipse cx="20" cy="30" rx="5" ry="12" fill="#000" stroke="#000" stroke-width="1.5"/>
  <ellipse cx="44" cy="30" rx="5" ry="12" fill="#000" stroke="#000" stroke-width="1.5"/>
  <ellipse cx="20" cy="30" rx="3" ry="8" fill="#40E0D0" stroke="#40E0D0" stroke-width="1"/>
  <ellipse cx="44" cy="30" rx="3" ry="8" fill="#40E0D0" stroke="#40E0D0" stroke-width="1"/>

  <!-- Pies -->
  <ellipse cx="26" cy="52" rx="3" ry="4" fill="#FFA500" stroke="#FF8C00" stroke-width="1.5"/>
  <ellipse cx="38" cy="52" rx="3" ry="4" fill="#FFA500" stroke="#FF8C00" stroke-width="1.5"/>

  <!-- Corbata -->
  <rect x="30" y="25" width="4" height="8" rx="1" fill="#FF69B4" stroke="#FF1493" stroke-width="1.5"/>
  <circle cx="32" cy="33" r="1.5" fill="#FFD700" stroke="#FFA500" stroke-width="1"/>

  <!-- Sombrero de copa -->
  <ellipse cx="32" cy="10" rx="8" ry="2" fill="#000" stroke="#000" stroke-width="1.5"/>
  <rect x="28" y="6" width="8" height="4" rx="1" fill="#000" stroke="#000" stroke-width="1.5"/>
  <rect x="30" y="4" width="4" height="2" rx="1" fill="#FFD700" stroke="#FFA500" stroke-width="1.5"/>

  <!-- Bufanda -->
  <rect x="22" y="22" width="20" height="4" rx="2" fill="#87CEEB" stroke="#4682B4" stroke-width="1.5"/>
  <circle cx="18" cy="24" r="2" fill="#87CEEB" stroke="#4682B4" stroke-width="1.5"/>
  <circle cx="46" cy="24" r="2" fill="#87CEEB" stroke="#4682B4" stroke-width="1.5"/>

  <!-- Nieve -->
  <circle cx="10" cy="50" r="2" fill="#FFF" stroke="#B0C4DE" stroke-width="1" opacity="0.8"/>
  <circle cx="54" cy="48" r="1.5" fill="#FFF" stroke="#B0C4DE" stroke-width="1" opacity="0.7"/>
  <circle cx="15" cy="45" r="1" fill="#FFF" stroke="#B0C4DE" stroke-width="1" opacity="0.6"/>
  <circle cx="50" cy="52" r="1" fill="#FFF" stroke="#B0C4DE" stroke-width="1" opacity="0.6"/>
  <circle cx="8" cy="40" r="0.8" fill="#FFF" stroke="#B0C4DE" stroke-width="1" opacity="0.5"/>

  <!-- Estrellas kawaii -->
  <path d="M 20 8 L 20.3 8.8 L 21.2 8.8 L 20.3 9.5 L 20.7 10.3 L 20 9.5 L 19.3 10.3 L 19.7 9.5 L 18.8 8.8 L 19.7 8.8 Z"
        fill="#FFD700" stroke="#FFA500" stroke-width="1"/>
  <path d="M 44 12 L 44.2 12.6 L 44.8 12.6 L 44.2 13.1 L 44.5 13.7 L 44 13.1 L 43.5 13.7 L 43.8 13.1 L 43.2 12.6 L 43.8 12.6 Z"
        fill="#FFD700" stroke="#FFA500" stroke-width="1"/>

  <!-- Mejillas rosadas -->
  <ellipse cx="22" cy="18" rx="2" ry="1.5" fill="#FFB6C1" opacity="0.7"/>
  <ellipse cx="42" cy="18" rx="2" ry="1.5" fill="#FFB6C1" opacity="0.7"/>
</svg>