<svg width="64" height="64" viewBox="0 0 64 64" fill="none" xmlns="http://www.w3.org/2000/svg">
  <!-- Fondo circular consistente -->
  <circle cx="32" cy="32" r="30" fill="#F0F0F0" stroke="#333" stroke-width="2"/>

  <!-- Tortuga -->
  <ellipse cx="32" cy="38" rx="20" ry="15" fill="#228B22"/>
  <circle cx="32" cy="35" r="8" fill="#2E8B57"/>

  <!-- Patrones del caparazón -->
  <circle cx="25" cy="35" r="3" fill="#006400"/>
  <circle cx="39" cy="35" r="3" fill="#006400"/>
  <circle cx="32" cy="40" r="3" fill="#006400"/>
  <circle cx="32" cy="30" r="2" fill="#006400"/>

  <!-- Cabeza -->
  <circle cx="15" cy="38" r="8" fill="#228B22"/>
  <circle cx="15" cy="35" r="6" fill="#32CD32"/>

  <!-- Patas -->
  <ellipse cx="25" cy="48" rx="5" ry="8" fill="#228B22" stroke="#333" stroke-width="1"/>
  <ellipse cx="39" cy="48" rx="5" ry="8" fill="#228B22" stroke="#333" stroke-width="1"/>
  <ellipse cx="20" cy="45" rx="4" ry="6" fill="#228B22" stroke="#333" stroke-width="1"/>
  <ellipse cx="44" cy="45" rx="4" ry="6" fill="#228B22" stroke="#333" stroke-width="1"/>

  <!-- Ojos -->
  <circle cx="13" cy="33" r="2" fill="#000"/>
  <circle cx="17" cy="33" r="2" fill="#000"/>
  <circle cx="13" cy="34" r="1" fill="#FFF"/>
  <circle cx="17" cy="34" r="1" fill="#FFF"/>

  <!-- Cola -->
  <path d="M 50 40 Q 55 35, 52 30" stroke="#228B22" stroke-width="3" fill="none"/>
</svg>