<svg width="64" height="64" viewBox="0 0 64 64" fill="none" xmlns="http://www.w3.org/2000/svg">
  <!-- Fondo circular consistente -->
  <circle cx="32" cy="32" r="30" fill="#F0F0F0" stroke="#333" stroke-width="2"/>

  <!-- Tigre -->
  <ellipse cx="32" cy="35" rx="18" ry="15" fill="#FF8C00"/>
  <ellipse cx="32" cy="30" rx="12" ry="10" fill="#FFA500"/>

  <!-- Rayas negras -->
  <path d="M 15 25 L 20 30" stroke="#000" stroke-width="3"/>
  <path d="M 20 20 L 25 25" stroke="#000" stroke-width="3"/>
  <path d="M 25 35 L 30 40" stroke="#000" stroke-width="3"/>
  <path d="M 44 25 L 49 30" stroke="#000" stroke-width="3"/>
  <path d="M 39 20 L 44 25" stroke="#000" stroke-width="3"/>
  <path d="M 34 35 L 39 40" stroke="#000" stroke-width="3"/>

  <!-- Cara -->
  <circle cx="26" cy="28" r="2" fill="#FFF"/>
  <circle cx="38" cy="28" r="2" fill="#FFF"/>
  <circle cx="26" cy="29" r="1" fill="#000"/>
  <circle cx="38" cy="29" r="1" fill="#000"/>
  <ellipse cx="32" cy="35" rx="2" ry="1" fill="#000"/>

  <!-- Bigotes -->
  <path d="M 20 30 L 10 28" stroke="#000" stroke-width="1"/>
  <path d="M 20 32 L 10 34" stroke="#000" stroke-width="1"/>
  <path d="M 44 30 L 54 28" stroke="#000" stroke-width="1"/>
  <path d="M 44 32 L 54 34" stroke="#000" stroke-width="1"/>
</svg>