<svg width="64" height="64" viewBox="0 0 64 64" fill="none" xmlns="http://www.w3.org/2000/svg">
  <!-- Fondo circular claro -->
  <circle cx="32" cy="32" r="30" fill="#E0F7FA" stroke="#00BCD4" stroke-width="2"/>

  <!-- Delfín kawaii -->
  <!-- Cuerpo principal -->
  <ellipse cx="32" cy="32" rx="22" ry="12" fill="#4FC3F7" stroke="#00BCD4" stroke-width="1.5"/>
  <ellipse cx="32" cy="28" rx="16" ry="8" fill="#81D4FA" stroke="#00BCD4" stroke-width="1.5"/>

  <!-- Aleta dorsal -->
  <path d="M 32 20 L 28 12 L 36 12 Z" fill="#29B6F6" stroke="#00BCD4" stroke-width="1.5"/>

  <!-- Aletas laterales -->
  <ellipse cx="20" cy="30" rx="6" ry="10" fill="#4FC3F7" stroke="#00BCD4" stroke-width="1.5" transform="rotate(-25 20 30)"/>
  <ellipse cx="44" cy="30" rx="6" ry="10" fill="#4FC3F7" stroke="#00BCD4" stroke-width="1.5" transform="rotate(25 44 30)"/>

  <!-- Cola -->
  <path d="M 52 32 L 58 26 L 58 38 Z" fill="#4FC3F7" stroke="#00BCD4" stroke-width="1.5"/>

  <!-- Ojo grande kawaii -->
  <ellipse cx="22" cy="28" rx="4" ry="5" fill="#FFF" stroke="#00BCD4" stroke-width="1.5"/>
  <circle cx="23" cy="29" r="2" fill="#000"/>
  <circle cx="24" cy="28" r="1" fill="#FFF"/>

  <!-- Boca sonriente -->
  <path d="M 16 30 Q 12 32, 16 34" stroke="#000" stroke-width="1.5" fill="none"/>

  <!-- Burbujas -->
  <circle cx="10" cy="20" r="2" fill="#B3E5FC" stroke="#00BCD4" stroke-width="1" opacity="0.7"/>
  <circle cx="8" cy="12" r="1.5" fill="#B3E5FC" stroke="#00BCD4" stroke-width="1" opacity="0.5"/>
  <circle cx="12" cy="6" r="1" fill="#B3E5FC" stroke="#00BCD4" stroke-width="1" opacity="0.3"/>

  <!-- Estrellas kawaii -->
  <path d="M 48 15 L 49 17 L 51 17 L 49 19 L 50 21 L 48 19 L 46 21 L 47 19 L 45 17 L 47 17 Z"
        fill="#FFD700" stroke="#FFA500" stroke-width="1"/>
  <path d="M 54 22 L 54.5 23 L 55.5 23 L 54.5 24 L 55 25 L 54 24 L 53 25 L 53.5 24 L 52.5 23 L 53.5 23 Z"
        fill="#FFD700" stroke="#FFA500" stroke-width="1"/>

  <!-- Detalles en el cuerpo -->
  <ellipse cx="38" cy="30" rx="3" ry="2" fill="#B3E5FC" opacity="0.6"/>
  <ellipse cx="32" cy="33" rx="4" ry="2" fill="#B3E5FC" opacity="0.5"/>
</svg>