<svg width="64" height="64" viewBox="0 0 64 64" fill="none" xmlns="http://www.w3.org/2000/svg">
  <!-- Fondo circular claro -->
  <circle cx="32" cy="32" r="30" fill="#FFF0F5" stroke="#FF69B4" stroke-width="2"/>

  <!-- Zorro kawaii -->
  <!-- Cuerpo -->
  <ellipse cx="32" cy="36" rx="15" ry="12" fill="#FF6347" stroke="#FF4500" stroke-width="1.5"/>

  <!-- Cabeza -->
  <ellipse cx="32" cy="22" rx="12" ry="10" fill="#FF6347" stroke="#FF4500" stroke-width="1.5"/>

  <!-- Orejas puntiagudas -->
  <path d="M 22 15 L 18 6 L 26 12 Z" fill="#FF6347" stroke="#FF4500" stroke-width="1.5"/>
  <path d="M 42 15 L 46 6 L 38 12 Z" fill="#FF6347" stroke="#FF4500" stroke-width="1.5"/>
  <path d="M 22 11 L 20 8 L 23 10 Z" fill="#FFB6C1"/>
  <path d="M 42 11 L 44 8 L 41 10 Z" fill="#FFB6C1"/>

  <!-- Ojos grandes kawaii -->
  <ellipse cx="27" cy="20" rx="3.5" ry="4.5" fill="#FFF" stroke="#FF4500" stroke-width="1.5"/>
  <ellipse cx="37" cy="20" rx="3.5" ry="4.5" fill="#FFF" stroke="#FF4500" stroke-width="1.5"/>
  <circle cx="28" cy="21" r="1.8" fill="#000"/>
  <circle cx="36" cy="21" r="1.8" fill="#000"/>
  <circle cx="29" cy="20" r="0.9" fill="#FFF"/>
  <circle cx="35" cy="20" r="0.9" fill="#FFF"/>

  <!-- Nariz -->
  <ellipse cx="32" cy="25" rx="2" ry="1.5" fill="#000"/>

  <!-- Boca sonriente -->
  <path d="M 26 27 Q 32 31, 38 27" stroke="#000" stroke-width="1.5" fill="none"/>

  <!-- Cola grande y esponjosa -->
  <ellipse cx="48" cy="32" rx="10" ry="8" fill="#FF6347" stroke="#FF4500" stroke-width="1.5"/>
  <circle cx="52" cy="30" r="4" fill="#FFF" stroke="#FF4500" stroke-width="1.5"/>

  <!-- Patas -->
  <ellipse cx="25" cy="46" rx="4" ry="3" fill="#FF6347" stroke="#FF4500" stroke-width="1.5"/>
  <ellipse cx="39" cy="46" rx="4" ry="3" fill="#FF6347" stroke="#FF4500" stroke-width="1.5"/>

  <!-- Puntas blancas en la cola y patas -->
  <ellipse cx="48" cy="36" rx="6" ry="4" fill="#FFF" stroke="#FF4500" stroke-width="1"/>
  <ellipse cx="25" cy="47" rx="2" ry="1.5" fill="#FFF"/>
  <ellipse cx="39" cy="47" rx="2" ry="1.5" fill="#FFF"/>

  <!-- Mejillas rosadas -->
  <ellipse cx="22" cy="24" rx="2.5" ry="2" fill="#FFB6C1" opacity="0.7"/>
  <ellipse cx="42" cy="24" rx="2.5" ry="2" fill="#FFB6C1" opacity="0.7"/>
</svg>