<svg width="64" height="64" viewBox="0 0 64 64" fill="none" xmlns="http://www.w3.org/2000/svg">
  <!-- Fondo circular claro -->
  <circle cx="32" cy="32" r="30" fill="#FFFACD" stroke="#FFA500" stroke-width="2"/>

  <!-- Oso kawaii -->
  <!-- Cuerpo -->
  <ellipse cx="32" cy="38" rx="17" ry="14" fill="#F4A460" stroke="#FFA500" stroke-width="1.5"/>

  <!-- Cabeza -->
  <ellipse cx="32" cy="24" rx="13" ry="11" fill="#F4A460" stroke="#FFA500" stroke-width="1.5"/>

  <!-- Orejas -->
  <circle cx="22" cy="15" r="6" fill="#F4A460" stroke="#FFA500" stroke-width="1.5"/>
  <circle cx="42" cy="15" r="6" fill="#F4A460" stroke="#FFA500" stroke-width="1.5"/>
  <circle cx="22" cy="15" r="3" fill="#DEB887"/>
  <circle cx="42" cy="15" r="3" fill="#DEB887"/>

  <!-- Ojos grandes kawaii -->
  <ellipse cx="27" cy="22" rx="3.5" ry="4.5" fill="#FFF" stroke="#FFA500" stroke-width="1.5"/>
  <ellipse cx="37" cy="22" rx="3.5" ry="4.5" fill="#FFF" stroke="#FFA500" stroke-width="1.5"/>
  <circle cx="28" cy="23" r="1.8" fill="#000"/>
  <circle cx="36" cy="23" r="1.8" fill="#000"/>
  <circle cx="29" cy="22" r="0.9" fill="#FFF"/>
  <circle cx="35" cy="22" r="0.9" fill="#FFF"/>

  <!-- Nariz -->
  <ellipse cx="32" cy="27" rx="2.5" ry="2" fill="#8B4513"/>

  <!-- Boca -->
  <path d="M 26 29 Q 32 33, 38 29" stroke="#000" stroke-width="1.5" fill="none"/>

  <!-- Corazón en el pecho -->
  <path d="M 32 38 C 30 36, 26 36, 26 40 C 26 42, 30 44, 32 46 C 34 44, 38 42, 38 40 C 38 36, 34 36, 32 38 Z"
        fill="#FF69B4" stroke="#FF1493" stroke-width="1"/>

  <!-- Patas -->
  <ellipse cx="24" cy="48" rx="5" ry="4" fill="#F4A460" stroke="#FFA500" stroke-width="1.5"/>
  <ellipse cx="40" cy="48" rx="5" ry="4" fill="#F4A460" stroke="#FFA500" stroke-width="1.5"/>

  <!-- Brazos -->
  <ellipse cx="18" cy="35" rx="4" ry="8" fill="#F4A460" stroke="#FFA500" stroke-width="1.5"/>
  <ellipse cx="46" cy="35" rx="4" ry="8" fill="#F4A460" stroke="#FFA500" stroke-width="1.5"/>
</svg>