<svg width="64" height="64" viewBox="0 0 64 64" fill="none" xmlns="http://www.w3.org/2000/svg">
  <!-- Fondo circular claro -->
  <circle cx="32" cy="32" r="30" fill="#FFE4B5" stroke="#FFA500" stroke-width="2"/>

  <!-- León kawaii -->
  <!-- Melena -->
  <circle cx="32" cy="28" r="18" fill="#FFD700" stroke="#FFA500" stroke-width="1.5"/>
  <circle cx="32" cy="28" r="14" fill="#FFA500" stroke="#FF8C00" stroke-width="1.5"/>

  <!-- Cabeza -->
  <ellipse cx="32" cy="28" rx="10" ry="9" fill="#F4A460" stroke="#FFA500" stroke-width="1.5"/>

  <!-- Orejas -->
  <ellipse cx="24" cy="20" rx="4" ry="5" fill="#F4A460" stroke="#FFA500" stroke-width="1.5"/>
  <ellipse cx="40" cy="20" rx="4" ry="5" fill="#F4A460" stroke="#FFA500" stroke-width="1.5"/>

  <!-- Ojos grandes kawaii -->
  <ellipse cx="27" cy="26" rx="3" ry="4" fill="#FFF" stroke="#FFA500" stroke-width="1.5"/>
  <ellipse cx="37" cy="26" rx="3" ry="4" fill="#FFF" stroke="#FFA500" stroke-width="1.5"/>
  <circle cx="28" cy="27" r="1.5" fill="#000"/>
  <circle cx="36" cy="27" r="1.5" fill="#000"/>
  <circle cx="29" cy="26" r="0.8" fill="#FFF"/>
  <circle cx="35" cy="26" r="0.8" fill="#FFF"/>

  <!-- Nariz -->
  <ellipse cx="32" cy="30" rx="2" ry="1.5" fill="#000"/>

  <!-- Boca -->
  <path d="M 27 32 Q 32 35, 37 32" stroke="#000" stroke-width="1.5" fill="none"/>

  <!-- Bigotes -->
  <path d="M 20 28 L 14 26" stroke="#000" stroke-width="1"/>
  <path d="M 20 30 L 14 30" stroke="#000" stroke-width="1"/>
  <path d="M 44 28 L 50 26" stroke="#000" stroke-width="1"/>
  <path d="M 44 30 L 50 30" stroke="#000" stroke-width="1"/>

  <!-- Cuerpo pequeño -->
  <ellipse cx="32" cy="42" rx="12" ry="8" fill="#F4A460" stroke="#FFA500" stroke-width="1.5"/>

  <!-- Cola con pluma -->
  <ellipse cx="44" cy="40" rx="8" ry="4" fill="#F4A460" stroke="#FFA500" stroke-width="1.5"/>
  <path d="M 50 40 L 54 36 L 52 42" fill="#FFD700" stroke="#FFA500" stroke-width="1.5"/>

  <!-- Patas -->
  <ellipse cx="26" cy="48" rx="3" ry="2" fill="#F4A460" stroke="#FFA500" stroke-width="1.5"/>
  <ellipse cx="38" cy="48" rx="3" ry="2" fill="#F4A460" stroke="#FFA500" stroke-width="1.5"/>

  <!-- Corona opcional kawaii -->
  <path d="M 32 10 L 30 6 L 31 8 L 29 4 L 31 6 L 32 2 L 33 6 L 35 4 L 33 8 L 34 6 L 32 10 Z"
        fill="#FFD700" stroke="#FFA500" stroke-width="1.5"/>
</svg>