<svg width="64" height="64" viewBox="0 0 64 64" fill="none" xmlns="http://www.w3.org/2000/svg">
  <!-- Fondo circular claro -->
  <circle cx="32" cy="32" r="30" fill="#F5F5DC" stroke="#DEB887" stroke-width="2"/>

  <!-- Canguro kawaii -->
  <!-- Cuerpo -->
  <ellipse cx="32" cy="35" rx="15" ry="18" fill="#D2691E" stroke="#A0522D" stroke-width="1.5"/>
  <ellipse cx="32" cy="32" rx="12" ry="14" fill="#DEB887" stroke="#A0522D" stroke-width="1.5"/>

  <!-- Cabeza -->
  <ellipse cx="32" cy="18" rx="10" ry="8" fill="#D2691E" stroke="#A0522D" stroke-width="1.5"/>

  <!-- Orejas grandes -->
  <ellipse cx="26" cy="12" rx="3" ry="6" fill="#D2691E" stroke="#A0522D" stroke-width="1.5"/>
  <ellipse cx="38" cy="12" rx="3" ry="6" fill="#D2691E" stroke="#A0522D" stroke-width="1.5"/>
  <ellipse cx="26" cy="12" rx="1.5" ry="3" fill="#FFB6C1"/>
  <ellipse cx="38" cy="12" rx="1.5" ry="3" fill="#FFB6C1"/>

  <!-- Ojos grandes kawaii -->
  <ellipse cx="27" cy="16" rx="3" ry="4" fill="#FFF" stroke="#A0522D" stroke-width="1.5"/>
  <ellipse cx="37" cy="16" rx="3" ry="4" fill="#FFF" stroke="#A0522D" stroke-width="1.5"/>
  <circle cx="28" cy="17" r="1.5" fill="#000"/>
  <circle cx="36" cy="17" r="1.5" fill="#000"/>
  <circle cx="29" cy="16" r="0.8" fill="#FFF"/>
  <circle cx="35" cy="16" r="0.8" fill="#FFF"/>

  <!-- Nariz -->
  <ellipse cx="32" cy="20" rx="2" ry="1.5" fill="#000"/>

  <!-- Boca feliz -->
  <path d="M 28 22 Q 32 25, 36 22" stroke="#000" stroke-width="1.5" fill="none"/>

  <!-- Bolsa -->
  <ellipse cx="32" cy="42" rx="8" ry="6" fill="#F4A460" stroke="#A0522D" stroke-width="1.5"/>
  <ellipse cx="32" cy="42" rx="6" ry="4" fill="#FFE4B5" stroke="#A0522D" stroke-width="1"/>

  <!-- Bebé en la bolsa -->
  <circle cx="32" cy="42" r="3" fill="#FFB6C1" stroke="#FF1493" stroke-width="1"/>
  <ellipse cx="31" cy="41" rx="0.8" ry="1" fill="#000"/>
  <ellipse cx="33" cy="41" rx="0.8" ry="1" fill="#000"/>
  <path d="M 30 43 Q 32 44, 34 43" stroke="#000" stroke-width="0.5" fill="none"/>

  <!-- Brazos -->
  <ellipse cx="22" cy="30" rx="3" ry="8" fill="#D2691E" stroke="#A0522D" stroke-width="1.5"/>
  <ellipse cx="42" cy="30" rx="3" ry="8" fill="#D2691E" stroke="#A0522D" stroke-width="1.5"/>

  <!-- Patas -->
  <ellipse cx="26" cy="48" rx="3" ry="6" fill="#D2691E" stroke="#A0522D" stroke-width="1.5"/>
  <ellipse cx="38" cy="48" rx="3" ry="6" fill="#D2691E" stroke="#A0522D" stroke-width="1.5"/>

  <!-- Cola -->
  <path d="M 45 35 Q 52 30, 50 20" stroke="#D2691E" stroke-width="4" fill="none" stroke-linecap="round"/>
  <ellipse cx="50" cy="20" rx="3" ry="2" fill="#D2691E" stroke="#A0522D" stroke-width="1.5"/>

  <!-- Corazón flotante -->
  <path d="M 20 10 C 19 9, 17 9, 17 11 C 17 12, 19 13, 20 14 C 21 13, 23 12, 23 11 C 23 9, 21 9, 20 10 Z"
        fill="#FF69B4" stroke="#FF1493" stroke-width="1"/>

  <!-- Mejillas rosadas -->
  <ellipse cx="22" cy="19" rx="2.5" ry="2" fill="#FFB6C1" opacity="0.6"/>
  <ellipse cx="42" cy="19" rx="2.5" ry="2" fill="#FFB6C1" opacity="0.6"/>
</svg>