<svg width="64" height="64" viewBox="0 0 64 64" fill="none" xmlns="http://www.w3.org/2000/svg">
  <!-- Fondo circular consistente -->
  <circle cx="32" cy="32" r="30" fill="#F0F0F0" stroke="#333" stroke-width="2"/>

  <!-- Zorro -->
  <ellipse cx="32" cy="35" rx="18" ry="15" fill="#FF6347"/>
  <ellipse cx="32" cy="30" rx="12" ry="10" fill="#FF8C69"/>

  <!-- Orejas puntiagudas -->
  <path d="M 20 20 L 15 5 L 25 15 Z" fill="#FF6347" stroke="#333" stroke-width="1"/>
  <path d="M 44 20 L 49 5 L 39 15 Z" fill="#FF6347" stroke="#333" stroke-width="1"/>
  <path d="M 20 15 L 17 8 L 22 12 Z" fill="#FFB6C1"/>
  <path d="M 44 15 L 47 8 L 42 12 Z" fill="#FFB6C1"/>

  <!-- Características de la cara -->
  <circle cx="26" cy="28" r="2" fill="#000"/>
  <circle cx="38" cy="28" r="2" fill="#000"/>
  <ellipse cx="32" cy="35" rx="2" ry="1" fill="#000"/>
  <path d="M 25 40 Q 32 45, 39 40" stroke="#FFF" stroke-width="2" fill="none"/>

  <!-- Cola -->
  <path d="M 50 40 Q 58 35, 55 25" stroke="#FF6347" stroke-width="4" fill="none"/>
  <circle cx="55" cy="25" r="4" fill="#FFF"/>
</svg>