<svg width="64" height="64" viewBox="0 0 64 64" fill="none" xmlns="http://www.w3.org/2000/svg">
  <!-- Fondo circular claro -->
  <circle cx="32" cy="32" r="30" fill="#FFF0F5" stroke="#FF1493" stroke-width="2"/>

  <!-- Elefante kawaii -->
  <!-- Cuerpo -->
  <ellipse cx="32" cy="38" rx="18" ry="14" fill="#B0E0E6" stroke="#4682B4" stroke-width="1.5"/>

  <!-- Cabeza -->
  <ellipse cx="32" cy="25" rx="14" ry="11" fill="#B0E0E6" stroke="#4682B4" stroke-width="1.5"/>

  <!-- Orejas gigantes -->
  <ellipse cx="20" cy="22" rx="12" ry="15" fill="#B0E0E6" stroke="#4682B4" stroke-width="1.5"/>
  <ellipse cx="44" cy="22" rx="12" ry="15" fill="#B0E0E6" stroke="#4682B4" stroke-width="1.5"/>
  <ellipse cx="20" cy="22" rx="8" ry="10" fill="#E6F3FF"/>
  <ellipse cx="44" cy="22" rx="8" ry="10" fill="#E6F3FF"/>

  <!-- Trompa -->
  <path d="M 32 35 Q 30 45, 32 50 Q 34 45, 32 35" fill="#87CEEB" stroke="#4682B4" stroke-width="1.5"/>
  <path d="M 32 50 Q 28 52, 26 50" stroke="#4682B4" stroke-width="1.5" fill="none"/>

  <!-- Ojos grandes kawaii -->
  <ellipse cx="27" cy="24" rx="3.5" ry="4.5" fill="#FFF" stroke="#4682B4" stroke-width="1.5"/>
  <ellipse cx="37" cy="24" rx="3.5" ry="4.5" fill="#FFF" stroke="#4682B4" stroke-width="1.5"/>
  <circle cx="28" cy="25" r="2" fill="#000"/>
  <circle cx="36" cy="25" r="2" fill="#000"/>
  <circle cx="29" cy="24" r="1" fill="#FFF"/>
  <circle cx="35" cy="24" r="1" fill="#FFF"/>

  <!-- Colmillos -->
  <path d="M 28 35 L 27 40" stroke="#FFF" stroke-width="3" stroke-linecap="round"/>
  <path d="M 36 35 L 37 40" stroke="#FFF" stroke-width="3" stroke-linecap="round"/>

  <!-- Patas -->
  <ellipse cx="24" cy="48" rx="5" ry="8" fill="#B0E0E6" stroke="#4682B4" stroke-width="1.5"/>
  <ellipse cx="40" cy="48" rx="5" ry="8" fill="#B0E0E6" stroke="#4682B4" stroke-width="1.5"/>

  <!-- Sombrero kawaii -->
  <ellipse cx="32" cy="12" rx="10" ry="3" fill="#FF69B4" stroke="#FF1493" stroke-width="1.5"/>
  <rect x="28" y="8" width="8" height="4" rx="2" fill="#FFB6C1" stroke="#FF1493" stroke-width="1.5"/>
  <circle cx="32" cy="6" r="1" fill="#FFD700" stroke="#FFA500" stroke-width="1"/>

  <!-- Corazones decorativos -->
  <path d="M 15 30 C 14 29, 12 29, 12 31 C 12 32, 14 33, 15 34 C 16 33, 18 32, 18 31 C 18 29, 16 29, 15 30 Z"
        fill="#FFB6C1" stroke="#FF1493" stroke-width="1"/>
  <path d="M 49 30 C 48 29, 46 29, 46 31 C 46 32, 48 33, 49 34 C 50 33, 52 32, 52 31 C 52 29, 50 29, 49 30 Z"
        fill="#FFB6C1" stroke="#FF1493" stroke-width="1"/>

  <!-- Mejillas rosadas -->
  <ellipse cx="20" cy="27" rx="3" ry="2" fill="#FFB6C1" opacity="0.6"/>
  <ellipse cx="44" cy="27" rx="3" ry="2" fill="#FFB6C1" opacity="0.6"/>
</svg>