<svg width="64" height="64" viewBox="0 0 64 64" fill="none" xmlns="http://www.w3.org/2000/svg">
  <!-- Fondo circular claro -->
  <circle cx="32" cy="32" r="30" fill="#F8F8FF" stroke="#9370DB" stroke-width="2"/>

  <!-- Panda kawaii -->
  <!-- Cuerpo -->
  <ellipse cx="32" cy="38" rx="15" ry="12" fill="#FFF" stroke="#9370DB" stroke-width="1.5"/>

  <!-- Cabeza -->
  <ellipse cx="32" cy="24" rx="13" ry="11" fill="#FFF" stroke="#9370DB" stroke-width="1.5"/>

  <!-- Orejas negras -->
  <circle cx="22" cy="15" r="7" fill="#000" stroke="#9370DB" stroke-width="1.5"/>
  <circle cx="42" cy="15" r="7" fill="#000" stroke="#9370DB" stroke-width="1.5"/>
  <circle cx="22" cy="15" r="4" fill="#FFB6C1"/>
  <circle cx="42" cy="15" r="4" fill="#FFB6C1"/>

  <!-- Parches alrededor de los ojos -->
  <ellipse cx="25" cy="22" rx="6" ry="8" fill="#000" stroke="#9370DB" stroke-width="1.5"/>
  <ellipse cx="39" cy="22" rx="6" ry="8" fill="#000" stroke="#9370DB" stroke-width="1.5"/>

  <!-- Ojos grandes kawaii -->
  <ellipse cx="26" cy="23" rx="4" ry="5" fill="#FFF" stroke="#000" stroke-width="1"/>
  <ellipse cx="38" cy="23" rx="4" ry="5" fill="#FFF" stroke="#000" stroke-width="1"/>
  <circle cx="27" cy="24" r="2" fill="#000"/>
  <circle cx="37" cy="24" r="2" fill="#000"/>
  <circle cx="28" cy="23" r="1" fill="#FFF"/>
  <circle cx="36" cy="23" r="1" fill="#FFF"/>
  <!-- Pequeñas lágrimas kawaii -->
  <ellipse cx="29" cy="26" rx="1" ry="2" fill="#87CEEB" opacity="0.7"/>
  <ellipse cx="35" cy="26" rx="1" ry="2" fill="#87CEEB" opacity="0.7"/>

  <!-- Nariz -->
  <ellipse cx="32" cy="29" rx="3" ry="2" fill="#000"/>

  <!-- Boca -->
  <path d="M 28 31 Q 32 35, 36 31" stroke="#000" stroke-width="1.5" fill="none"/>

  <!-- Brazos negros -->
  <ellipse cx="18" cy="35" rx="5" ry="10" fill="#000" stroke="#9370DB" stroke-width="1.5"/>
  <ellipse cx="46" cy="35" rx="5" ry="10" fill="#000" stroke="#9370DB" stroke-width="1.5"/>

  <!-- Patas negras -->
  <ellipse cx="24" cy="46" rx="4" ry="4" fill="#000" stroke="#9370DB" stroke-width="1.5"/>
  <ellipse cx="40" cy="46" rx="4" ry="4" fill="#000" stroke="#9370DB" stroke-width="1.5"/>

  <!-- Bambú -->
  <rect x="8" y="20" width="3" height="25" rx="1" fill="#90EE90" stroke="#228B22" stroke-width="1"/>
  <rect x="9" y="25" width="3" height="20" rx="1" fill="#98FB98" stroke="#228B22" stroke-width="1"/>
  <rect x="10" y="30" width="3" height="15" rx="1" fill="#90EE90" stroke="#228B22" stroke-width="1"/>

  <!-- Hojas de bambú -->
  <ellipse cx="14" cy="18" rx="3" ry="1" fill="#90EE90" stroke="#228B22" stroke-width="1"/>
  <ellipse cx="14" cy="23" rx="3" ry="1" fill="#90EE90" stroke="#228B22" stroke-width="1"/>
  <ellipse cx="14" cy="28" rx="3" ry="1" fill="#90EE90" stroke="#228B22" stroke-width="1"/>

  <!-- Mejillas rosadas -->
  <ellipse cx="20" cy="27" rx="3" ry="2" fill="#FFB6C1" opacity="0.6"/>
  <ellipse cx="44" cy="27" rx="3" ry="2" fill="#FFB6C1" opacity="0.6"/>
</svg>